<svg id="_0" data-name="0" xmlns="http://www.w3.org/2000/svg" width="76.15301mm" height="14.80493mm" viewBox="0 0 215.86681 41.96674">
  <title>icons_measure_mode</title>
  <path d="M171.4249,139.44508l-24.06177-17.72987a2.48056,2.48056,0,0,0-3.952,1.997v35.57944a2.48056,2.48056,0,0,0,3.92983,2.01316L171.39976,143.985A2.80824,2.80824,0,0,0,171.4249,139.44508Z" transform="translate(-36.52689 -120.51851)" style="fill: none;stroke: #000;stroke-linecap: round;stroke-linejoin: round;stroke-width: 1.4173228346456692px"/>
  <g>
    <circle cx="26.9613" cy="31.65642" r="6.07959" style="fill: none;stroke: #000;stroke-linecap: round;stroke-linejoin: round;stroke-width: 1.4173228346456692px"/>
    <path d="M37.23555,144.81116a26.79291,26.79291,0,0,1,50.65355-5.72445" transform="translate(-36.52689 -120.51851)" style="fill: none;stroke: #000;stroke-linecap: round;stroke-linejoin: round;stroke-width: 1.4173228346456692px"/>
    <polygon points="55.566 28.347 56.923 15.94 45.697 21.246 55.566 28.347" style="fill: none;stroke: #000;stroke-linecap: round;stroke-linejoin: round;stroke-width: 1.4173228346456692px"/>
  </g>
  <g>
    <rect x="186.62271" y="17.02215" width="28.53543" height="23.9709" rx="3.68504" style="fill: none;stroke: #000;stroke-linecap: round;stroke-linejoin: round;stroke-width: 1.4173228346456692px"/>
    <path d="M228.39509,137.54066v-7.02624a9.02223,9.02223,0,0,1,9.02222-9.02222h0a9.02223,9.02223,0,0,1,9.02223,9.02222v7.02624" transform="translate(-36.52689 -120.51851)" style="fill: none;stroke: #000;stroke-linecap: round;stroke-linejoin: round;stroke-width: 1.4173228346456692px"/>
  </g>
</svg>
