M48
; DRILL file {KiCad 8.0.6} date 2025-01-15T11:57:02+0100
; FORMAT={-:-/ absolute / metric / decimal}
; #@! TF.CreationDate,2025-01-15T11:57:02+01:00
; #@! TF.GenerationSoftware,Kicad,Pcbnew,8.0.6
; #@! TF.FileFunction,Plated,1,2,PTH
FMAT,2
METRIC
; #@! TA.AperFunction,Plated,PTH,ViaDrill
T1C0.400
; #@! TA.AperFunction,Plated,PTH,ComponentDrill
T2C0.400
; #@! TA.AperFunction,Plated,PTH,ComponentDrill
T3C3.000
%
G90
G05
T1
X8.0Y-13.0
X12.0Y-15.0
X22.0Y-10.0
X24.0Y-7.0
X32.0Y-81.0
X34.0Y-57.0
X38.0Y-81.0
X46.778Y-58.222
X47.5Y-27.976
X52.5Y-27.6
X52.5Y-39.976
X57.5Y-39.976
X58.5Y-27.5
X62.5Y-37.5
X81.0Y-48.6
X81.024Y-26.976
X83.0Y-37.0
X90.0Y-72.0
X92.6Y-51.4
X99.0Y-75.0
T2
X11.047Y-20.6
X11.047Y-25.68
X11.047Y-30.76
X11.047Y-35.84
X11.047Y-40.92
X11.047Y-46.0
X11.325Y-78.46
X11.325Y-83.54
X23.867Y-45.0
X23.867Y-67.86
X26.407Y-45.0
X26.407Y-67.86
X28.92Y-10.0
X28.947Y-45.0
X28.947Y-67.86
X31.487Y-45.0
X31.487Y-67.86
X34.0Y-10.0
X34.027Y-45.0
X34.027Y-67.86
X36.567Y-45.0
X36.567Y-67.86
X39.107Y-45.0
X39.107Y-67.86
X41.28Y-23.2
X41.647Y-45.0
X41.647Y-67.86
X42.047Y-76.0
X42.047Y-86.16
X44.187Y-45.0
X44.187Y-67.86
X46.047Y-75.92
X46.047Y-86.08
X46.727Y-45.0
X46.727Y-67.86
X47.0Y-11.0
X49.267Y-45.0
X49.267Y-67.86
X51.807Y-45.0
X51.807Y-67.86
X52.08Y-11.0
X52.107Y-90.62
X52.107Y-96.62
X54.347Y-45.0
X54.347Y-67.86
X54.647Y-90.62
X54.647Y-96.62
X56.887Y-45.0
X56.887Y-67.86
X57.16Y-11.0
X57.187Y-90.62
X57.187Y-96.62
X59.427Y-45.0
X59.427Y-67.86
X59.727Y-90.62
X59.727Y-96.62
X61.6Y-23.2
X61.967Y-45.0
X61.967Y-67.86
X62.267Y-75.38
X62.267Y-90.62
X62.267Y-96.62
X64.507Y-45.0
X64.507Y-67.86
X64.807Y-75.38
X64.807Y-90.62
X64.807Y-96.62
X67.047Y-45.0
X67.047Y-67.86
X67.347Y-75.38
X67.347Y-90.62
X67.347Y-96.62
X69.0Y-11.0
X69.587Y-45.0
X69.587Y-67.86
X69.887Y-75.38
X69.887Y-90.62
X69.887Y-96.62
X72.124Y-67.864
X72.127Y-45.0
X72.277Y-22.0
X72.277Y-27.08
X72.427Y-75.38
X72.427Y-90.62
X72.427Y-96.62
X74.08Y-11.0
X74.664Y-67.864
X74.667Y-45.0
X74.817Y-24.54
X74.967Y-75.38
X74.967Y-90.62
X74.967Y-96.62
X77.204Y-67.864
X77.207Y-45.0
X77.507Y-75.38
X77.507Y-90.62
X77.507Y-96.62
X80.047Y-75.38
X80.047Y-90.62
X80.047Y-96.62
X82.587Y-90.62
X82.587Y-96.62
X85.127Y-90.62
X85.127Y-96.62
X87.667Y-90.62
X87.667Y-96.62
X89.427Y-20.16
X89.427Y-22.7
X89.427Y-25.24
X89.427Y-27.78
X89.427Y-30.32
X89.427Y-32.86
X89.427Y-35.4
X89.427Y-37.94
X90.207Y-90.62
X90.207Y-96.62
X92.747Y-96.62
X94.639Y-58.222
X94.644Y-66.0
X99.639Y-58.222
X99.644Y-66.0
X104.667Y-10.0
X104.667Y-12.54
X104.667Y-15.08
X104.667Y-17.62
X104.667Y-20.16
X104.667Y-22.7
X104.667Y-25.24
X104.667Y-27.78
X104.667Y-30.32
X104.667Y-32.86
X104.667Y-35.4
X104.667Y-37.94
X104.667Y-40.48
X104.667Y-43.02
X104.667Y-45.56
X104.667Y-48.1
X111.547Y-69.5
X112.887Y-75.7
X112.887Y-78.24
X112.947Y-83.0
X114.047Y-67.0
X115.427Y-75.7
X115.427Y-78.24
X115.487Y-83.0
X116.547Y-69.5
X117.214Y-65.367
X117.967Y-75.7
X117.967Y-78.24
X118.027Y-83.0
X119.714Y-62.867
X120.507Y-75.7
X120.507Y-78.24
X120.567Y-83.0
X122.214Y-65.367
X122.88Y-61.233
X123.047Y-75.7
X123.047Y-78.24
X123.107Y-83.0
X123.107Y-98.24
X125.38Y-58.733
X125.587Y-75.7
X125.587Y-78.24
X125.647Y-83.0
X125.647Y-98.24
X127.88Y-61.233
X128.127Y-75.7
X128.127Y-78.24
X128.187Y-83.0
X128.187Y-98.24
X128.547Y-57.1
X130.667Y-75.7
X130.667Y-78.24
X130.727Y-83.0
X130.727Y-98.24
X131.047Y-54.6
X133.207Y-75.7
X133.207Y-78.24
X133.267Y-83.0
X133.267Y-98.24
X133.547Y-57.1
X134.214Y-52.967
X135.747Y-75.7
X135.747Y-78.24
X135.807Y-83.0
X135.807Y-98.24
X136.714Y-50.467
X138.287Y-75.7
X138.287Y-78.24
X138.347Y-83.0
X138.347Y-98.24
X139.214Y-52.967
X139.88Y-48.833
X140.827Y-75.7
X140.827Y-78.24
X140.887Y-83.0
X140.887Y-98.24
X142.38Y-46.333
X143.367Y-75.7
X143.367Y-78.24
X143.427Y-83.0
X144.88Y-48.833
X145.547Y-44.7
X145.907Y-75.7
X145.907Y-78.24
X145.967Y-83.0
X148.047Y-42.2
X148.447Y-75.7
X148.447Y-78.24
X148.507Y-83.0
X150.547Y-44.7
X150.987Y-75.7
X150.987Y-78.24
X151.047Y-83.0
X151.214Y-40.567
X153.714Y-38.067
X156.214Y-40.567
X156.88Y-36.433
X159.38Y-33.933
X161.88Y-36.433
X162.547Y-32.3
X165.047Y-29.8
X167.547Y-32.3
X168.214Y-28.167
X170.714Y-25.667
X173.214Y-28.167
X173.88Y-24.033
X176.38Y-21.533
X178.88Y-24.033
X179.547Y-19.9
X182.047Y-17.4
X184.547Y-19.9
X185.214Y-15.767
X187.714Y-13.267
X190.214Y-15.767
X190.88Y-11.633
X193.38Y-9.133
X195.88Y-11.633
X196.547Y-7.5
X199.047Y-5.0
X201.547Y-7.5
T3
X6.0Y-6.0
X9.0Y-96.0
X84.0Y-7.0
X100.0Y-93.0
X171.8Y-7.2
X198.0Y-40.0
X199.0Y-96.0
M30
